# xmcd
#
# Track frame offsets:
#	150
#	14829
#	27596
#	44044
#	60302
#	79716
#	97992
#	112559
#	137524
#	156760
#	172538
#	185630
#	202407
#
# Disc length: 2888 seconds
#
# Revision: 0
# Processed by: cddbd v1.5.1PL0 Copyright (c) Steve Scherf et al.
# Submitted via: EasyCDDAExtractor 4.6.9.1
#
DISCID=a60b460d
DTITLE=Brooks and Dunn - Hillbilly Deluxe
DYEAR=2005
DGENRE=Country
TTITLE0=Play Something Country
TTITLE1=She's About As Lonely As I'm Going To Let Her Get
TTITLE2=My Heart's Not A Hotel
TTITLE3=Whiskey Do My Talkin'
TTITLE4=Hillbilly Deluxe
TTITLE5=One More Roll of The Dice
TTITLE6=Just Another Neon Night
TTITLE7=Believe
TTITLE8=Building Bridges
TTITLE9=Her West Was Wider
TTITLE10=I May Never Get Over You
TTITLE11=She Likes To Get Out of Town
TTITLE12=Again
EXTD=
EXTT0=
EXTT1=
EXTT2=
EXTT3=
EXTT4=
EXTT5=
EXTT6=
EXTT7=
EXTT8=
EXTT9=
EXTT10=
EXTT11=
EXTT12=
PLAYORDER=
